<svg width="18" height="10" viewBox="0 0 18 10" fill="none" xmlns="http://www.w3.org/2000/svg">
<path d="M8.46752 0.717484C8.53724 0.647187 8.62019 0.59139 8.71158 0.553313C8.80298 0.515237 8.90101 0.495634 9.00002 0.495634C9.09903 0.495634 9.19706 0.515237 9.28845 0.553313C9.37984 0.59139 9.46279 0.647187 9.53252 0.717484L17.0325 8.21748C17.1024 8.28741 17.1579 8.37043 17.1958 8.4618C17.2336 8.55316 17.2531 8.65109 17.2531 8.74998C17.2531 8.84888 17.2336 8.9468 17.1958 9.03817C17.1579 9.12954 17.1024 9.21255 17.0325 9.28248C16.9626 9.35241 16.8796 9.40788 16.7882 9.44573C16.6968 9.48357 16.5989 9.50305 16.5 9.50305C16.4011 9.50305 16.3032 9.48357 16.2118 9.44573C16.1205 9.40788 16.0374 9.35241 15.9675 9.28248L9.00002 2.30748L2.03252 9.28248C1.89129 9.42371 1.69974 9.50305 1.50002 9.50305C1.30029 9.50305 1.10874 9.42371 0.967517 9.28248C0.826289 9.14126 0.746948 8.94971 0.746948 8.74998C0.746948 8.55026 0.826289 8.35871 0.967517 8.21748L8.46752 0.717484Z" fill="#C1C1C1"/>
</svg>
