<svg width="50" height="40" viewBox="0 0 50 40" fill="none" xmlns="http://www.w3.org/2000/svg">
<g filter="url(#filter0_b_2136_67)">
<rect width="50" height="40" rx="4" fill="#FFF624" fill-opacity="0.2"/>
<path d="M17.32 29.36C16.256 29.36 15.296 29.112 14.44 28.616C13.592 28.12 12.92 27.448 12.424 26.6C11.928 25.744 11.68 24.784 11.68 23.72V17C11.68 15.936 11.928 14.98 12.424 14.132C12.92 13.276 13.592 12.6 14.44 12.104C15.296 11.608 16.256 11.36 17.32 11.36C18.384 11.36 19.34 11.608 20.188 12.104C21.044 12.6 21.72 13.276 22.216 14.132C22.712 14.98 22.96 15.936 22.96 17V23.72C22.96 24.784 22.712 25.744 22.216 26.6C21.72 27.448 21.044 28.12 20.188 28.616C19.34 29.112 18.384 29.36 17.32 29.36ZM17.32 27.656C18.032 27.656 18.68 27.484 19.264 27.14C19.848 26.788 20.312 26.32 20.656 25.736C21 25.152 21.172 24.508 21.172 23.804V16.916C21.172 16.204 21 15.556 20.656 14.972C20.312 14.388 19.848 13.924 19.264 13.58C18.68 13.228 18.032 13.052 17.32 13.052C16.608 13.052 15.96 13.228 15.376 13.58C14.792 13.924 14.328 14.388 13.984 14.972C13.64 15.556 13.468 16.204 13.468 16.916V23.804C13.468 24.508 13.64 25.152 13.984 25.736C14.328 26.32 14.792 26.788 15.376 27.14C15.96 27.484 16.608 27.656 17.32 27.656ZM31.9684 29.36C30.9044 29.36 29.9444 29.112 29.0884 28.616C28.2404 28.12 27.5684 27.448 27.0724 26.6C26.5764 25.744 26.3284 24.784 26.3284 23.72V17C26.3284 15.936 26.5764 14.98 27.0724 14.132C27.5684 13.276 28.2404 12.6 29.0884 12.104C29.9444 11.608 30.9044 11.36 31.9684 11.36C33.0324 11.36 33.9884 11.608 34.8364 12.104C35.6924 12.6 36.3684 13.276 36.8644 14.132C37.3604 14.98 37.6084 15.936 37.6084 17V23.72C37.6084 24.784 37.3604 25.744 36.8644 26.6C36.3684 27.448 35.6924 28.12 34.8364 28.616C33.9884 29.112 33.0324 29.36 31.9684 29.36ZM31.9684 27.656C32.6804 27.656 33.3284 27.484 33.9124 27.14C34.4964 26.788 34.9604 26.32 35.3044 25.736C35.6484 25.152 35.8204 24.508 35.8204 23.804V16.916C35.8204 16.204 35.6484 15.556 35.3044 14.972C34.9604 14.388 34.4964 13.924 33.9124 13.58C33.3284 13.228 32.6804 13.052 31.9684 13.052C31.2564 13.052 30.6084 13.228 30.0244 13.58C29.4404 13.924 28.9764 14.388 28.6324 14.972C28.2884 15.556 28.1164 16.204 28.1164 16.916V23.804C28.1164 24.508 28.2884 25.152 28.6324 25.736C28.9764 26.32 29.4404 26.788 30.0244 27.14C30.6084 27.484 31.2564 27.656 31.9684 27.656Z" fill="#F1F1F1"/>
</g>
<defs>
<filter id="filter0_b_2136_67" x="-10" y="-10" width="70" height="60" filterUnits="userSpaceOnUse" color-interpolation-filters="sRGB">
<feFlood flood-opacity="0" result="BackgroundImageFix"/>
<feGaussianBlur in="BackgroundImageFix" stdDeviation="5"/>
<feComposite in2="SourceAlpha" operator="in" result="effect1_backgroundBlur_2136_67"/>
<feBlend mode="normal" in="SourceGraphic" in2="effect1_backgroundBlur_2136_67" result="shape"/>
</filter>
</defs>
</svg>
