<svg width="38" height="38" viewBox="0 0 38 38" fill="none" xmlns="http://www.w3.org/2000/svg">
<circle cx="19" cy="19" r="19" fill="#191919"/>
<circle cx="19" cy="19" r="18.67" stroke="#F1F1F1" stroke-opacity="0.16" stroke-width="0.66"/>
<g clip-path="url(#clip0_113_764)">
<path d="M22.5032 9.66675C22.8054 9.66675 23.1845 9.74608 23.489 9.82075C24.5507 10.0774 25.8095 10.3959 26.7032 11.0667C27.535 11.6909 28.1814 12.7794 28.6807 13.8854C29.719 16.1896 30.4412 19.2614 30.6909 21.5971C30.8099 22.7054 30.839 23.8207 30.6255 24.5709C30.5205 24.9396 30.293 25.2172 30.1332 25.3876C29.6455 25.9044 29.0179 26.2906 28.3972 26.6417L28.0892 26.8156C27.8863 26.9284 27.6822 27.0389 27.4767 27.1469L26.8677 27.4619L26.0312 27.8784L25.358 28.2097C25.1117 28.3331 24.8296 28.3654 24.5618 28.3007C24.294 28.2361 24.0577 28.0787 23.8947 27.8565C23.7318 27.6344 23.6527 27.3617 23.6716 27.0868C23.6904 26.8119 23.806 26.5526 23.9977 26.3547L23.4914 25.3421C22.0354 25.7845 20.5214 26.0063 18.9997 26.0001C17.4014 26.0001 15.8765 25.7668 14.508 25.3421L14.0029 26.3524C14.1953 26.5499 14.3116 26.8093 14.331 27.0844C14.3504 27.3594 14.2718 27.6325 14.109 27.8552C13.9462 28.0778 13.7099 28.2355 13.4418 28.3004C13.1738 28.3654 12.8914 28.3332 12.6449 28.2097L12.0102 27.8947C11.3055 27.5471 10.6009 27.1994 9.91486 26.8156C9.19852 26.4154 8.43902 25.9896 7.87086 25.3864C7.64412 25.1572 7.47534 24.8773 7.37852 24.5697C7.16386 23.8207 7.19419 22.7066 7.31202 21.5971C7.56169 19.2614 8.28386 16.1896 9.32336 13.8854C9.82152 12.7794 10.4679 11.6909 11.2997 11.0667C12.1934 10.3959 13.4522 10.0774 14.5139 9.82075C14.8184 9.74608 15.1964 9.66675 15.4997 9.66675C15.6675 9.6666 15.8333 9.70265 15.9859 9.77244C16.1385 9.84222 16.2743 9.9441 16.3839 10.0711C16.4935 10.1981 16.5745 10.3473 16.6212 10.5085C16.6679 10.6696 16.6794 10.8389 16.6547 11.0049C17.4311 10.89 18.2149 10.8327 18.9997 10.8334C19.8059 10.8334 20.5934 10.8917 21.3494 11.0061C21.3245 10.84 21.3358 10.6706 21.3824 10.5093C21.4291 10.348 21.51 10.1987 21.6197 10.0715C21.7293 9.94435 21.8651 9.84236 22.0178 9.77251C22.1705 9.70265 22.3353 9.66658 22.5032 9.66675ZM24.0829 12.4236C23.9079 12.3676 23.8659 12.3921 23.8029 12.4971L23.7305 12.6277C23.542 12.951 23.2556 13.206 22.9129 13.3561C22.5701 13.5063 22.1885 13.5437 21.823 13.4631C20.8952 13.2639 19.9487 13.1646 18.9997 13.1667C18.0057 13.1667 17.0549 13.2717 16.1764 13.4631C15.8109 13.5437 15.4293 13.5063 15.0865 13.3561C14.7437 13.206 14.4574 12.951 14.2689 12.6277L14.1965 12.4982C14.1347 12.3932 14.0927 12.3687 13.9189 12.4236C13.5035 12.5554 13.0579 12.6966 12.6997 12.9334C12.3649 13.1842 11.918 13.8084 11.4502 14.8456C10.5565 16.8254 9.85652 19.7502 9.63252 21.8456C9.58586 22.2877 9.56136 22.6669 9.55552 22.9796V23.3226C9.56019 23.5302 9.57536 23.6947 9.59636 23.8149C9.89269 24.1042 10.259 24.3317 10.6265 24.5406L11.4222 24.9804L11.9425 25.2546L12.3672 24.4052C12.1616 24.2137 12.032 23.9543 12.0024 23.6749C11.9727 23.3954 12.0449 23.1146 12.2057 22.8842C12.3665 22.6537 12.6051 22.489 12.8776 22.4203C13.1501 22.3517 13.4382 22.3838 13.689 22.5106C15.1077 23.2234 16.9534 23.6667 18.9997 23.6667C21.0449 23.6667 22.8917 23.2211 24.3104 22.5117C24.5504 22.3915 24.8246 22.3577 25.0867 22.4161C25.3488 22.4745 25.5827 22.6215 25.749 22.8324C25.9152 23.0432 26.0037 23.3049 25.9994 23.5734C25.9952 23.8419 25.8984 24.1006 25.7255 24.3061L25.6322 24.4052L26.0569 25.2569C26.4045 25.0772 26.7534 24.8871 27.1034 24.6934C27.5584 24.4414 28.0367 24.1766 28.4065 23.8149C28.4275 23.6947 28.4415 23.5302 28.4474 23.3226V22.9796C28.4379 22.6003 28.4122 22.2215 28.3704 21.8444C28.1464 19.7502 27.4464 16.8254 26.5527 14.8444C26.086 13.8084 25.638 13.1842 25.3044 12.9334C24.945 12.6966 24.4994 12.5554 24.0829 12.4236ZM15.208 17.2501C15.7495 17.2501 16.2688 17.4652 16.6517 17.8481C17.0346 18.231 17.2497 18.7503 17.2497 19.2917C17.2497 19.8332 17.0346 20.3525 16.6517 20.7354C16.2688 21.1183 15.7495 21.3334 15.208 21.3334C14.6665 21.3334 14.1472 21.1183 13.7643 20.7354C13.3815 20.3525 13.1664 19.8332 13.1664 19.2917C13.1664 18.7503 13.3815 18.231 13.7643 17.8481C14.1472 17.4652 14.6665 17.2501 15.208 17.2501ZM22.7914 17.2501C23.3328 17.2501 23.8521 17.4652 24.235 17.8481C24.6179 18.231 24.833 18.7503 24.833 19.2917C24.833 19.8332 24.6179 20.3525 24.235 20.7354C23.8521 21.1183 23.3328 21.3334 22.7914 21.3334C22.2499 21.3334 21.7306 21.1183 21.3477 20.7354C20.9648 20.3525 20.7497 19.8332 20.7497 19.2917C20.7497 18.7503 20.9648 18.231 21.3477 17.8481C21.7306 17.4652 22.2499 17.2501 22.7914 17.2501Z" fill="#F1F1F1"/>
</g>
<defs>
<clipPath id="clip0_113_764">
<rect width="28" height="28" fill="white" transform="translate(5 5)"/>
</clipPath>
</defs>
</svg>
