<svg width="49" height="40" viewBox="0 0 49 40" fill="none" xmlns="http://www.w3.org/2000/svg">
<g filter="url(#filter0_b_2136_74)">
<rect width="49" height="40" rx="4" fill="#FFF624" fill-opacity="0.2"/>
<path d="M16.692 29V13.688L13.44 15.644V13.664L16.692 11.72H18.48V29H16.692ZM22.5516 28.988L22.5636 27.38L30.3756 20.324C31.0476 19.716 31.4916 19.14 31.7076 18.596C31.9316 18.044 32.0436 17.468 32.0436 16.868C32.0436 16.156 31.8756 15.512 31.5396 14.936C31.2036 14.36 30.7516 13.904 30.1836 13.568C29.6156 13.224 28.9796 13.052 28.2756 13.052C27.5396 13.052 26.8836 13.228 26.3076 13.58C25.7316 13.932 25.2756 14.396 24.9396 14.972C24.6116 15.548 24.4516 16.176 24.4596 16.856H22.6596C22.6596 15.808 22.9076 14.868 23.4036 14.036C23.8996 13.204 24.5716 12.552 25.4196 12.08C26.2676 11.6 27.2276 11.36 28.2996 11.36C29.3476 11.36 30.2876 11.608 31.1196 12.104C31.9596 12.592 32.6196 13.256 33.0996 14.096C33.5876 14.928 33.8316 15.856 33.8316 16.88C33.8316 17.6 33.7436 18.236 33.5676 18.788C33.3996 19.332 33.1316 19.84 32.7636 20.312C32.4036 20.776 31.9436 21.256 31.3836 21.752L24.4476 28.016L24.1716 27.296H33.8316V28.988H22.5516Z" fill="#F1F1F1"/>
</g>
<defs>
<filter id="filter0_b_2136_74" x="-10" y="-10" width="69" height="60" filterUnits="userSpaceOnUse" color-interpolation-filters="sRGB">
<feFlood flood-opacity="0" result="BackgroundImageFix"/>
<feGaussianBlur in="BackgroundImageFix" stdDeviation="5"/>
<feComposite in2="SourceAlpha" operator="in" result="effect1_backgroundBlur_2136_74"/>
<feBlend mode="normal" in="SourceGraphic" in2="effect1_backgroundBlur_2136_74" result="shape"/>
</filter>
</defs>
</svg>
