<svg width="50" height="40" viewBox="0 0 50 40" fill="none" xmlns="http://www.w3.org/2000/svg">
<g filter="url(#filter0_b_2136_81)">
<rect width="50" height="40" rx="4" fill="#FFF624" fill-opacity="0.2"/>
<path d="M19.288 29V25.652H11.2V23.972L16.984 11.72H18.964L13.18 23.972H19.288V18.932H21.064V23.972H22.948V25.652H21.064V29H19.288ZM31.6803 29.36C30.6003 29.36 29.6163 29.1 28.7283 28.58C27.8483 28.052 27.1443 27.34 26.6163 26.444C26.0963 25.54 25.8363 24.524 25.8363 23.396V17.408C25.8363 16.248 26.0963 15.216 26.6163 14.312C27.1363 13.4 27.8443 12.684 28.7403 12.164C29.6443 11.636 30.6683 11.372 31.8123 11.372C32.7963 11.372 33.7083 11.588 34.5483 12.02C35.3963 12.452 36.0883 13.056 36.6243 13.832L35.2683 14.948C34.9003 14.372 34.4123 13.912 33.8043 13.568C33.1963 13.224 32.5323 13.052 31.8123 13.052C31.0043 13.052 30.2843 13.248 29.6523 13.64C29.0203 14.032 28.5243 14.548 28.1643 15.188C27.8043 15.82 27.6243 16.508 27.6243 17.252V21.02L27.1803 20.516C27.6843 19.724 28.3443 19.084 29.1603 18.596C29.9843 18.108 30.8803 17.864 31.8483 17.864C32.9203 17.864 33.8843 18.12 34.7403 18.632C35.5963 19.136 36.2763 19.82 36.7803 20.684C37.2843 21.548 37.5363 22.516 37.5363 23.588C37.5363 24.652 37.2683 25.62 36.7323 26.492C36.2043 27.364 35.4963 28.06 34.6083 28.58C33.7283 29.1 32.7523 29.36 31.6803 29.36ZM31.6803 27.644C32.4323 27.644 33.1163 27.464 33.7323 27.104C34.3563 26.744 34.8483 26.256 35.2083 25.64C35.5763 25.024 35.7603 24.34 35.7603 23.588C35.7603 22.836 35.5763 22.152 35.2083 21.536C34.8483 20.912 34.3603 20.42 33.7443 20.06C33.1283 19.692 32.4443 19.508 31.6923 19.508C30.9403 19.508 30.2563 19.692 29.6403 20.06C29.0243 20.42 28.5323 20.912 28.1643 21.536C27.8043 22.152 27.6243 22.836 27.6243 23.588C27.6243 24.332 27.8043 25.012 28.1643 25.628C28.5243 26.244 29.0123 26.736 29.6283 27.104C30.2443 27.464 30.9283 27.644 31.6803 27.644Z" fill="#F1F1F1"/>
</g>
<defs>
<filter id="filter0_b_2136_81" x="-10" y="-10" width="70" height="60" filterUnits="userSpaceOnUse" color-interpolation-filters="sRGB">
<feFlood flood-opacity="0" result="BackgroundImageFix"/>
<feGaussianBlur in="BackgroundImageFix" stdDeviation="5"/>
<feComposite in2="SourceAlpha" operator="in" result="effect1_backgroundBlur_2136_81"/>
<feBlend mode="normal" in="SourceGraphic" in2="effect1_backgroundBlur_2136_81" result="shape"/>
</filter>
</defs>
</svg>
