<svg width="24" height="24" viewBox="0 0 24 24" fill="none" xmlns="http://www.w3.org/2000/svg">
<g clip-path="url(#clip0_2136_62)">
<path d="M12 0C5.373 0 0 5.373 0 12C0 18.627 5.373 24 12 24C18.627 24 24 18.627 24 12C24 5.373 18.627 0 12 0ZM16.281 17.781C16.134 17.9265 15.942 18 15.75 18C15.558 18 15.366 17.9265 15.219 17.781L10.719 13.281C10.5795 13.14 10.5 12.9495 10.5 12.75V5.25C10.5 4.836 10.836 4.5 11.25 4.5C11.664 4.5 12 4.836 12 5.25V12.4395L16.281 16.7205C16.5735 17.013 16.5735 17.487 16.281 17.781Z" fill="#F1F1F1"/>
</g>
<defs>
<clipPath id="clip0_2136_62">
<rect width="24" height="24" fill="white"/>
</clipPath>
</defs>
</svg>
