<svg width="49" height="40" viewBox="0 0 49 40" fill="none" xmlns="http://www.w3.org/2000/svg">
<g filter="url(#filter0_b_2136_88)">
<rect width="49" height="40" rx="4" fill="#FFF624" fill-opacity="0.2"/>
<path d="M16.692 29V13.688L13.44 15.644V13.664L16.692 11.72H18.48V29H16.692ZM28.7196 11.372C29.8076 11.372 30.7916 11.636 31.6716 12.164C32.5596 12.684 33.2636 13.396 33.7836 14.3C34.3036 15.196 34.5636 16.204 34.5636 17.324V23.324C34.5636 24.476 34.3036 25.508 33.7836 26.42C33.2636 27.332 32.5516 28.052 31.6476 28.58C30.7516 29.1 29.7316 29.36 28.5876 29.36C27.6036 29.36 26.6916 29.144 25.8516 28.712C25.0196 28.272 24.3316 27.668 23.7876 26.9L25.1316 25.784C25.4996 26.352 25.9876 26.808 26.5956 27.152C27.2116 27.496 27.8756 27.668 28.5876 27.668C29.4036 27.668 30.1236 27.476 30.7476 27.092C31.3796 26.7 31.8756 26.188 32.2356 25.556C32.6036 24.916 32.7876 24.224 32.7876 23.48V19.712L33.2196 20.216C32.7236 21.008 32.0636 21.648 31.2396 22.136C30.4236 22.624 29.5276 22.868 28.5516 22.868C27.4876 22.868 26.5236 22.612 25.6596 22.1C24.8036 21.588 24.1236 20.9 23.6196 20.036C23.1236 19.172 22.8756 18.208 22.8756 17.144C22.8756 16.08 23.1396 15.112 23.6676 14.24C24.1956 13.36 24.9036 12.664 25.7916 12.152C26.6796 11.632 27.6556 11.372 28.7196 11.372ZM28.7196 13.076C27.9676 13.076 27.2836 13.26 26.6676 13.628C26.0516 13.988 25.5596 14.476 25.1916 15.092C24.8316 15.708 24.6516 16.392 24.6516 17.144C24.6516 17.896 24.8316 18.58 25.1916 19.196C25.5516 19.812 26.0396 20.304 26.6556 20.672C27.2716 21.032 27.9556 21.212 28.7076 21.212C29.4596 21.212 30.1436 21.032 30.7596 20.672C31.3836 20.304 31.8756 19.812 32.2356 19.196C32.6036 18.58 32.7876 17.896 32.7876 17.144C32.7876 16.4 32.6036 15.72 32.2356 15.104C31.8756 14.488 31.3876 13.996 30.7716 13.628C30.1556 13.26 29.4716 13.076 28.7196 13.076Z" fill="#F1F1F1"/>
</g>
<defs>
<filter id="filter0_b_2136_88" x="-10" y="-10" width="69" height="60" filterUnits="userSpaceOnUse" color-interpolation-filters="sRGB">
<feFlood flood-opacity="0" result="BackgroundImageFix"/>
<feGaussianBlur in="BackgroundImageFix" stdDeviation="5"/>
<feComposite in2="SourceAlpha" operator="in" result="effect1_backgroundBlur_2136_88"/>
<feBlend mode="normal" in="SourceGraphic" in2="effect1_backgroundBlur_2136_88" result="shape"/>
</filter>
</defs>
</svg>
