<svg width="38" height="38" viewBox="0 0 38 38" fill="none" xmlns="http://www.w3.org/2000/svg">
<circle cx="19" cy="19" r="19" fill="#191919"/>
<circle cx="19" cy="19" r="18.67" stroke="#F1F1F1" stroke-opacity="0.16" stroke-width="0.66"/>
<path d="M29.7243 9.38356C29.335 9.02687 28.7817 8.90801 28.2802 9.07328L7.00343 16.087C6.42357 16.2781 6.03035 16.7958 6.00166 17.4056C5.97302 18.0154 6.31591 18.5677 6.87521 18.8125L12.1371 21.1147C12.1628 21.2338 13.6733 28.2397 13.7247 28.4779C13.7906 28.7838 13.9459 29.0562 14.2748 29.14C14.6075 29.2248 14.8425 29.0429 15.0907 28.8571C15.2289 28.7537 18.9955 25.9332 18.9955 25.9332L23.5605 29.6688C23.8264 29.8865 24.1514 30 24.4827 30C24.6405 30 24.7997 29.9742 24.9547 29.9217C25.4351 29.7588 25.7913 29.3666 25.9074 28.8728L30.1594 10.795C30.2803 10.281 30.1136 9.74025 29.7243 9.38356ZM15.4309 22.4339C15.4283 22.4401 15.4257 22.447 15.4233 22.4553L14.5431 25.5306L13.5608 20.9748L20.3153 17.2219L15.5929 22.1598C15.5185 22.2375 15.4638 22.3316 15.4309 22.4339ZM15.7102 26.6178L16.11 25.221L16.4924 23.8849L17.8626 25.0062L15.7102 26.6178ZM28.7759 10.4695L24.524 28.5474C24.5219 28.5563 24.5191 28.5687 24.4983 28.5758C24.4777 28.5828 24.4676 28.5748 24.4606 28.5689L19.4654 24.4813C19.4652 24.4812 19.4651 24.4811 19.465 24.481L17.1506 22.5871L24.586 14.8126C24.8289 14.5587 24.8497 14.1654 24.6349 13.8872C24.4201 13.6091 24.0344 13.5296 23.7273 13.7003L12.7176 19.8174L7.4449 17.5104C7.42884 17.5034 7.42 17.4995 7.42127 17.4723C7.42255 17.4452 7.43172 17.4422 7.44836 17.4367L28.7251 10.423C28.7354 10.4196 28.7471 10.4158 28.7642 10.4314C28.7813 10.447 28.7785 10.459 28.7759 10.4695Z" fill="#F1F1F1"/>
</svg>
