<svg width="38" height="36" viewBox="0 0 38 36" fill="none" xmlns="http://www.w3.org/2000/svg">
<path d="M18 23.5C20.7614 23.5 23 21.2614 23 18.5C23 15.7386 20.7614 13.5 18 13.5C15.2386 13.5 13 15.7386 13 18.5C13 21.2614 15.2386 23.5 18 23.5Z" fill="#F1F1F1" stroke="#F1F1F1" stroke-width="4"/>
<path d="M37.3536 18.8536C37.5488 18.6583 37.5488 18.3417 37.3536 18.1464L34.1716 14.9645C33.9763 14.7692 33.6597 14.7692 33.4645 14.9645C33.2692 15.1597 33.2692 15.4763 33.4645 15.6716L36.2929 18.5L33.4645 21.3284C33.2692 21.5237 33.2692 21.8403 33.4645 22.0355C33.6597 22.2308 33.9763 22.2308 34.1716 22.0355L37.3536 18.8536ZM22 19H37V18H22V19Z" fill="#F1F1F1"/>
</svg>
